PathFileType	4	(X/Y/Z)	C:/Users/beibeiliu/ov580/test_trc/capture2\sequence.17_training_dense_left.trc
DataRate	CameraRate	NumFrames	NumMarkers	Units	OrigDataRate	OrigDataStartFrame	OrigNumFrames
120	120	22	19	mm	120	301	400
Frame#	Time	ThumbCMC			ThumbMCP			ThumbIP			ThumbTip			IndexMCP			IndexPIP			IndexTip			MiddleMCP			MiddlePIP			MiddleTip			RingMCP			RingPIP			RingTip			PinkyMCP			PinkyPIP			PinkyTip			BackHand1			BackHand2			BackHand3	
		X0	Y0	Z0	X1	Y1	Z1	X2	Y2	Z2	X3	Y3	Z3	X4	Y4	Z4	X5	Y5	Z5	X6	Y6	Z6	X7	Y7	Z7	X8	Y8	Z8	X9	Y9	Z9	X10	Y10	Z10	X11	Y11	Z11	X12	Y12	Z12	X13	Y13	Z13	X14	Y14	Z14	X15	Y15	Z15	X16	Y16	Z16	X17	Y17	Z17	X18	Y18	Z18	
300	2.5	-211.989	85.9864	13.0399	-216.988	100.032	-16.6389	-208.321	101.663	-41.5405	-183.482	94.244	-54.4135	-206.499	61.2691	-62.6415	-199.748	70.1469	-90.5831	-174.268	92.2794	-90.6753	-190.674	49.8661	-70.2604	-177.72	64.5058	-95.0879	-161.409	93.5005	-82.9382	-175.31	42.0593	-65.7671	-163.076	58.2321	-86.3947	-150.985	87.586	-66.3836	-158.647	36.0531	-53.7717	-148.62	49.4195	-75.8576	-141.474	78.9134	-70.0562	-182.517	37.2001	-12.8001	-187.819	33.4118	11.8664	-206.363	50.9983	-2.20646	
301	2.50833	-211.583	87.4181	10.8785	-218.238	103.785	-15.4971	-212.343	108.325	-40.8988	-190.492	96.6788	-53.4772	-212.918	64.9643	-57.8801	-207.104	69.5294	-88.3197	-184.849	93.9606	-93.4885	-199.496	51.2916	-65.6776	-184.022	64.9052	-95.2045	-163.866	89.3192	-83.588	-185.212	44.1929	-62.5584	-168.637	55.9336	-88.1614	-159.886	86.2511	-69.1221	-166.801	33.6293	-52.9047	-157.575	47.3815	-77.6746	-148.361	76.4716	-73.9711	-185.418	35.0952	-12.3447	-189.995	32.3794	13.8671	-213.775	54.5413	-0.412791	
302	2.51667	-213.365	92.2273	14.0439	-218.563	108.954	-13.1772	-214.111	110.805	-36.6624	-190.869	95.9146	-56.2559	-222.956	70.7964	-55.9235	-216.103	71.8065	-86.8464	-188.926	95.7882	-93.3635	-207.598	52.6313	-67.5346	-194.47	65.6493	-94.9272	-173.402	90.2843	-87.3065	-194.381	43.1177	-65.4594	-177.688	54.0146	-88.1813	-163.493	83.5954	-69.9494	-176.453	34.8895	-53.0999	-169.269	46.8388	-78.7523	-153.946	74.3778	-75.5137	-193.162	36.2063	-11.4945	-191.905	32.684	15.0176	-216.087	58.9931	4.66599	
303	2.525	-210.38	94.6432	17.023	-217.888	113.394	-9.24124	-213.855	114.032	-34.4325	-196.878	101.542	-55.6882	-225.346	71.9504	-52.4369	-219	75.3865	-85.1747	-195.86	94.6871	-92.526	-217.451	56.0556	-66.8396	-202.048	66.3191	-93.2373	-179.78	92.893	-85.372	-199.159	43.7773	-60.2797	-191.11	57.274	-86.7788	-170.24	81.6436	-72.5778	-185.07	37.358	-50.6063	-174.788	46.9583	-80.0635	-160.96	71.389	-77.439	-199.138	38.8597	-13.575	-197.62	33.5015	14.1254	-217.967	61.1768	6.61904	
304	2.53333	-208.908	96.6493	17.9528	-214.769	118.525	-5.23136	-213.539	116.63	-33.025	-197.845	100.632	-50.7455	-230.337	78.6966	-49.9432	-226.274	81.3969	-81.6344	-199.921	96.8692	-90.1851	-221.478	59.5169	-61.1906	-213.563	66.2336	-89.5431	-182.782	90.5689	-85.1842	-209.928	48.4223	-61.6891	-198.357	62.8578	-86.4587	-176.426	80.5836	-74.8517	-192.882	37.5519	-52.3089	-186.786	48.8763	-78.0091	-167.841	73.7398	-77.8578	-205.893	42.1859	-7.45648	-202.282	41.1107	16.9275	-222.496	67.8198	8.58125	
305	2.54167	-208.435	99.4376	19.544	-210.028	117.8	-0.83558	-213.935	123.54	-30.8661	-199.688	105.373	-50.8885	-237.655	87.2932	-48.363	-234.496	86.7225	-77.2792	-204.218	103.615	-88.5885	-227.957	65.4293	-55.7032	-222.994	73.8637	-86.934	-191.099	95.8038	-84.0882	-216.09	51.5897	-58.0588	-205.617	59.9916	-85.7474	-182.89	83.8179	-74.3056	-198.711	38.2924	-48.7456	-195.981	49.9559	-78.654	-174.725	76.2178	-76.7599	-208.594	44.8097	-7.9278	-206.404	38.5743	15.7531	-222.234	69.2447	12.5135	
306	2.55	-202.645	101.692	24.378	-206.206	121.004	0.427633	-211.259	126.676	-29.4696	-201.258	111.141	-48.4201	-237.367	91.2899	-43.319	-235.893	94.7017	-74.8005	-209.12	106.523	-85.5519	-234.316	73.088	-53.7665	-228.096	80.5735	-84.563	-194.051	99.2033	-82.2663	-223.568	56.666	-57.7539	-212.187	70.8614	-84.5814	-185.818	84.0462	-76.3025	-208.086	45.8519	-47.6762	-204.465	55.8989	-77.271	-180.535	75.0628	-78.3486	-214.3	49.6901	-8.03194	-208.819	42.9233	17.972	-222.194	71.5193	13.0106	
307	2.55833	-199.363	108.229	27.5439	-200.78	130.582	5.19666	-205.352	132.289	-23.6533	-198.814	112.81	-45.4367	-238.648	101.572	-37.5838	-239.185	103.042	-69.2834	-212.104	110.246	-83.1594	-236.508	81.1624	-51.539	-228.808	89.5828	-84.0385	-196.273	101.52	-81.9241	-229.982	67.7541	-53.9669	-219.856	77.6206	-81.3827	-189.535	86.3882	-77.1642	-215.034	49.3797	-48.9351	-212.509	59.7821	-75.7939	-184.118	79.5216	-77.7427	-215.484	53.4959	-5.48871	-211.306	49.46	18.9473	-222.019	81.3089	17.5539	
308	2.56667	-193.1	109.478	25.0617	-192.969	132.324	7.43146	-199.317	140.402	-21.3348	-196.393	120.523	-43.4572	-235.765	112.269	-33.5943	-239.794	117.581	-65.7381	-211.631	119.137	-80.3928	-237.73	91.936	-46.2327	-232.092	100.344	-77.7647	-197	104.702	-81.4059	-232.326	74.3774	-52.2218	-223.185	82.6618	-79.7338	-193.963	94.2426	-74.939	-217.849	54.6031	-45.3885	-213.968	67.2598	-75.5436	-188.42	81.6795	-78.5707	-218.494	62.7483	-2.25318	-210.511	51.9305	20.7056	-217.897	84.8327	17.2486	
309	2.575	-187.31	112.928	26.3747	-187.191	130.944	6.66923	-194.829	140.26	-21.3567	-195.523	118.113	-43.5422	-231.272	120.305	-28.3813	-235.874	122.658	-61.0429	-208.412	126.729	-78.0446	-236.627	104.876	-42.8832	-232.226	111.997	-73.0163	-195.072	109.944	-77.0512	-231.809	82.396	-46.8898	-223.312	95.0274	-75.1327	-188.639	97.9499	-68.8916	-222.839	68.1452	-44.3672	-217.785	77.3241	-71.7627	-187.354	89.8076	-71.797	-220.906	65.5625	-1.78816	-209.643	57.1646	24.9556	-216.712	91.8119	18.6264	
310	2.58333	-180.977	114.279	28.0697	-179.977	136.731	8.19576	-186.45	141.186	-16.1605	-190.35	125.701	-40.1193	-226.318	129.954	-25.4204	-231.283	131.73	-57.1633	-203.275	129.991	-73.7339	-233.594	113.736	-40.3753	-228.67	118.36	-71.8146	-190.661	117.417	-74.2909	-231.473	92.6437	-44.7634	-222.31	103.058	-73.4989	-186.926	99.6451	-67.5319	-224.627	75.4965	-43.6523	-215.835	85.7396	-70.8624	-187.601	93.7638	-68.7287	-220.505	71.8163	-0.683281	-210.883	66.3715	24.9479	-208.526	97.536	24.455	
311	2.59167	-172.294	112.656	29.9292	-171.956	135.523	8.41647	-177.405	149.522	-15.4608	-184.954	127.638	-36.4127	-221.139	133.259	-24.4912	-225.473	141.265	-53.7206	-197.811	141.07	-71.6307	-228.62	123.82	-36.2805	-224.435	126.341	-69.5663	-186.12	122.577	-70.3867	-229.005	103.673	-42.9146	-219.06	109.689	-72.9859	-185.847	105.485	-66.9432	-224.482	86.4879	-42.1883	-216.898	96.3786	-68.0175	-184.745	95.5008	-67.8703	-218.31	79.2944	-0.583279	-207.456	69.4924	27.2012	-206.31	106.298	22.8155	
312	2.6	-165.931	118.39	29.9588	-163.741	137.021	10.3026	-168.965	148.414	-13.2437	-178.727	130.519	-36.6257	-212.171	143.897	-21.6602	-214.738	151.172	-52.8943	-186.796	142.309	-68.4448	-222.949	128.989	-36.0797	-213.705	140.206	-67.5493	-179.069	126.993	-66.547	-225.644	113.566	-43.6725	-213.911	121.533	-69.9699	-181.437	113.194	-62.7326	-223.959	95.1812	-42.2124	-213.832	104.652	-67.4072	-183.293	100.72	-70.5899	-216.327	88.9496	-0.458387	-207.478	72.6852	25.2618	-198.028	106.896	25.0529	
313	2.60833	-155.653	115.746	32.0676	-151.381	135.811	13.4191	-159.563	150.81	-16.1889	-170.121	136.747	-37.6506	-198.411	150.077	-19.1288	-205.165	157.058	-49.5431	-176.49	147.541	-66.0813	-211.404	142.888	-34.5228	-205.668	143.716	-67.6275	-170.48	129.645	-64.8563	-218.245	125.002	-43.4295	-205.881	125.55	-71.4207	-174.4	115.01	-62.2399	-217.104	101.803	-39.0848	-211.565	114.216	-67.0462	-180.109	107.328	-68.7513	-212.07	100.595	1.32916	-207.296	80.315	26.6008	-191.752	113.821	25.1461	
314	2.61667	-147.284	113.326	31.5461	-138.351	134.573	10.8965	-139.526	149.914	-12.1512	-153.867	137.627	-34.6393	-181.455	155.953	-18.093	-184.939	166.124	-48.5811	-157.911	151.797	-63.6145	-196.224	149.145	-33.9383	-188.235	155.425	-64.8038	-158.634	133.485	-62.9673	-206.903	132.393	-41.2671	-193.237	140.508	-67.1803	-165.404	121.4	-63.9119	-209.481	116.861	-38.7141	-204.828	124.125	-65.5429	-172.444	112.752	-71.3553	-204.802	107.987	-1.31532	-202.476	87.7999	25.0745	-183.952	117.986	22.6664	
315	2.625	-137.5	111.048	31.7257	-124.22	129.262	12.2949	-124.16	143.217	-11.0118	-142.298	137.459	-37.6215	-163.064	164.765	-20.6748	-159.275	174.947	-48.5282	-137.608	154.518	-63.143	-176.997	161.418	-35.6391	-165.11	162.696	-65.1494	-145.207	132.573	-62.118	-189.741	145.125	-40.1473	-175.908	146.907	-68.3115	-154.928	122.328	-64.4133	-197.79	127.094	-38.8962	-187.034	135.819	-65.4019	-159.951	116.345	-66.9533	-192.026	117.56	2.04481	-197.594	98.1881	23.046	-173.074	122.572	24.4987	
316	2.63333	-131.786	107.575	29.597	-116.904	124.866	11.4679	-111.504	142.478	-13.2731	-127.972	132.885	-32.4235	-145.926	161.038	-15.6962	-145.774	173.988	-45.5696	-121.401	151.668	-62.3428	-160.801	163.159	-32.0821	-153.123	163.996	-63.0697	-133.439	131.065	-60.9253	-178.357	151.774	-41.2788	-164.686	152.822	-67.7549	-146.728	124.089	-66.2131	-190.821	135.394	-40.7647	-176.804	140.069	-66.0621	-152.353	121.631	-67.435	-184.545	121.381	2.64112	-190.167	104.731	25.4816	-161.125	126.604	25.9651	
317	2.64167	-123.93	105.466	31.9222	-106.553	117.874	14.4519	-101.089	134.301	-11.48	-120.374	129.724	-35.7425	-136.838	161.273	-18.6898	-131.432	172.015	-45.4498	-115.006	143.939	-62.8263	-152.689	160.643	-31.5237	-135.685	165.025	-61.2845	-126.893	131.302	-64.7923	-167.6	153.331	-40.5746	-152.506	156.102	-64.8636	-137.219	124.28	-65.1548	-180.957	136.047	-38.3268	-166.285	143.705	-65.0923	-142.9	119.062	-67.7613	-180.297	124.395	2.69098	-184.498	106.593	23.7934	-153.923	124.122	24.1725	
318	2.65	-120.484	101.299	32.1404	-101.018	112.04	15.8937	-94.5201	127.304	-11.4295	-112	123.191	-31.9732	-125.182	158.827	-19.2284	-115.049	169.281	-45.349	-106.506	141.761	-64.0674	-137.149	162.909	-33.8813	-130.305	161.412	-63.2761	-117.743	126.455	-64.3569	-155.618	151.111	-36.3227	-142.848	154.091	-66.4768	-130.273	119.788	-64.6568	-174.462	136.63	-39.1674	-158.207	144.576	-63.2331	-141.923	120.03	-69.5586	-173.298	124.224	2.30596	-180.254	107.535	23.7282	-149.104	122.983	26.7	
319	2.65833	-116.071	97.9191	29.3791	-94.5934	105.482	15.1439	-86.486	119.86	-12.3484	-105.153	117.494	-32.6451	-112.974	154.637	-19.2065	-108.684	162.645	-46.4908	-101.772	132.518	-63.9393	-132.184	159.758	-36.48	-117.668	155.979	-65.5385	-112.475	121.73	-67.2386	-147.194	151.874	-39.4896	-136.578	151.213	-66.3739	-127.121	117.08	-68.3137	-164.088	137.278	-38.2489	-155.302	142.538	-66.6057	-136.421	114.289	-70.9967	-164.679	127.683	-2.55228	-174.128	110.61	23.7698	-144.157	121.982	24.0407	
320	2.66667	-117.62	91.8772	28.6124	-92.7706	101.61	10.1828	-84.1938	112.345	-14.5865	-101.522	114.382	-38.3324	-110.421	145.662	-21.143	-99.2893	157.294	-49.7818	-92.5236	125.654	-66.7874	-125.865	152.302	-36.7014	-112.131	150.947	-68.149	-113.605	114.523	-70.1454	-141.15	150.704	-43.6621	-131.192	144.865	-72.6007	-125.222	108.762	-68.7073	-161.957	137.117	-40.3918	-146.277	141.742	-66.4459	-133.458	108.966	-72.0683	-162.806	129.083	-2.77573	-171.383	113.737	22.7201	-138.489	117.682	23.7515	
321	2.675	-114.189	91.5863	23.9268	-87.4705	93.2509	9.95622	-79.1555	104.008	-14.6253	-94.0609	108.567	-41.8227	-105.616	143.461	-28.4361	-94.8238	150.508	-52.6984	-93.2084	118.431	-72.4184	-117.512	150.098	-41.342	-112.039	146.982	-69.712	-110.209	108.685	-73.6089	-136.617	144.921	-43.0889	-126.032	139.78	-73.6391	-123.151	106.06	-71.9386	-156.46	132.86	-40.5769	-145.528	136.234	-70.71	-132.179	105.534	-73.9562	-157.543	125.858	-2.5576	-166.062	113.863	24.0384	-134.431	118.152	21.3738	
